<svg xmlns="http://www.w3.org/2000/svg" viewBox="0 0 960 640" role="img" aria-labelledby="title desc">
  <title id="title">IronClaw secure agent stack</title>
  <desc id="desc">Diagram showing a model separated from an encrypted vault, Wasm sandbox, endpoint allowlist, and NEAR AI Cloud enclave.</desc>
  <defs>
    <filter id="glow" x="-40%" y="-40%" width="180%" height="180%">
      <feGaussianBlur stdDeviation="12" result="blur"/>
      <feMerge>
        <feMergeNode in="blur"/>
        <feMergeNode in="SourceGraphic"/>
      </feMerge>
    </filter>
  </defs>
  <rect width="960" height="640" fill="#111827"/>
  <path d="M0 520c170-64 276-23 416-78 190-74 250-222 544-214v412H0Z" fill="#2563eb" opacity=".12"/>
  <g fill="none" stroke="#ffffff" stroke-opacity=".08">
    <path d="M88 100h784M88 220h784M88 340h784M88 460h784M160 52v536M320 52v536M480 52v536M640 52v536M800 52v536"/>
  </g>
  <g transform="translate(88 86)">
    <rect width="250" height="150" rx="20" fill="#0f172a" stroke="#60a5fa" stroke-opacity=".65"/>
    <text x="28" y="48" fill="#60a5fa" font-family="Aptos, Arial, sans-serif" font-size="20" font-weight="700">LLM session</text>
    <text x="28" y="84" fill="#dce8d5" font-family="Aptos, Arial, sans-serif" font-size="16">receives context</text>
    <text x="28" y="112" fill="#dce8d5" font-family="Aptos, Arial, sans-serif" font-size="16">never raw credentials</text>
  </g>
  <g transform="translate(354 62)" filter="url(#glow)">
    <rect x="38" y="16" width="176" height="176" rx="34" fill="#2563eb"/>
    <path d="M101 44 64 166c-3 11 10 19 18 9l58-74c7-9 1-22-11-22h-12l11-35h-27Z" fill="#dbeafe"/>
    <path d="M140 44 104 166c-3 11 11 19 18 9l58-74c7-9 1-22-11-22h-13l12-35h-28Z" fill="#0f172a"/>
    <path d="M67 51 40 139c-3 10 9 17 16 8l49-62c6-8 1-20-10-20h-9l8-14H67Z" fill="#0f172a"/>
  </g>
  <g transform="translate(626 86)">
    <rect width="250" height="150" rx="20" fill="#0f172a" stroke="#60a5fa" stroke-opacity=".65"/>
    <text x="28" y="48" fill="#60a5fa" font-family="Aptos, Arial, sans-serif" font-size="20" font-weight="700">Encrypted vault</text>
    <text x="28" y="84" fill="#dce8d5" font-family="Aptos, Arial, sans-serif" font-size="16">seals tokens</text>
    <text x="28" y="112" fill="#dce8d5" font-family="Aptos, Arial, sans-serif" font-size="16">injects at boundary</text>
  </g>
  <g transform="translate(126 356)">
    <rect width="232" height="138" rx="18" fill="#17231c" stroke="#ffffff" stroke-opacity=".16"/>
    <text x="24" y="46" fill="#f4f7ef" font-family="Aptos, Arial, sans-serif" font-size="19" font-weight="700">Wasm sandbox</text>
    <text x="24" y="82" fill="#aebba9" font-family="Aptos, Arial, sans-serif" font-size="15">per-tool permissions</text>
    <text x="24" y="108" fill="#aebba9" font-family="Aptos, Arial, sans-serif" font-size="15">strict resource limits</text>
  </g>
  <g transform="translate(602 356)">
    <rect width="232" height="138" rx="18" fill="#17231c" stroke="#ffffff" stroke-opacity=".16"/>
    <text x="24" y="46" fill="#f4f7ef" font-family="Aptos, Arial, sans-serif" font-size="19" font-weight="700">Endpoint allowlist</text>
    <text x="24" y="82" fill="#aebba9" font-family="Aptos, Arial, sans-serif" font-size="15">approved hosts only</text>
    <text x="24" y="108" fill="#aebba9" font-family="Aptos, Arial, sans-serif" font-size="15">blocks unknown egress</text>
  </g>
  <g fill="none" stroke="#60a5fa" stroke-width="4" stroke-linecap="round" stroke-dasharray="10 14" opacity=".9">
    <path d="M338 162h70"/>
    <path d="M552 162h74"/>
    <path d="M480 320C430 340 378 362 342 392"/>
    <path d="M480 320c50 20 102 42 138 72"/>
  </g>
  <text x="480" y="584" text-anchor="middle" fill="#dbeafe" font-family="Aptos, Arial, sans-serif" font-size="18" font-weight="700">NEAR AI Cloud enclave boundary</text>
</svg>
